<?xml version="1.0" encoding="iso-8859-1"?>
<!-- Generator: Adobe Illustrator 19.0.0, SVG Export Plug-In . SVG Version: 6.00 Build 0)  -->
<svg xmlns="http://www.w3.org/2000/svg" xmlns:xlink="http://www.w3.org/1999/xlink" version="1.1" id="Layer_1" x="0px" y="0px" viewBox="0 0 490 490" style="enable-background:new 0 0 490 490;" xml:space="preserve" width="512" height="512">
<g>
	<path style="fill:#FFE05C;" d="M490,245c0,24.74-3.67,48.63-10.49,71.14c-8.71,28.77-22.57,55.29-40.51,78.51   c-10.68,13.82-22.8,26.47-36.14,37.72c-7.23,6.09-14.81,11.78-22.71,17.02C341.41,475.05,294.96,490,245,490   C109.69,490,0,380.31,0,245S109.69,0,245,0S490,109.69,490,245z"/>
	<path style="fill:#55D485;" d="M479.51,316.14c-8.71,28.77-22.57,55.29-40.51,78.51c-6.47,2.95-13.5,4.88-20.88,5.6   c-0.25,0.02-0.49,0.04-0.74,0.07c-11.95,1.15-19.97,12.81-16.7,24.37l2.18,7.68c-7.23,6.09-14.81,11.78-22.71,17.02   c-0.16-0.11-0.31-0.22-0.47-0.33l-55.46-40.67c-3.24-2.38-7.14-3.66-11.16-3.71c-26.86-0.35-53.72-1.81-80.58-4.43   c-30.57-2.99-54.99-26.89-58.74-57.37c-5.61-45.52-5.59-91.04,0.05-136.55c3.76-30.39,28.21-54.01,58.69-56.99   c61.88-6.04,123.76-6.04,185.64,0c30.48,2.98,54.93,26.6,58.69,56.99C481.35,242.93,482.24,279.54,479.51,316.14z"/>
	<g>
		<path style="fill:#2F373B;" d="M416.195,244.787H234.404c-9.176,0-16.615-7.439-16.615-16.615v0    c0-9.176,7.439-16.615,16.615-16.615h181.792c9.176,0,16.615,7.439,16.615,16.615v0    C432.81,237.348,425.371,244.787,416.195,244.787z"/>
		<path style="fill:#2F373B;" d="M416.195,295.61H234.404c-9.176,0-16.615-7.439-16.615-16.615v0    c0-9.176,7.439-16.615,16.615-16.615h181.792c9.176,0,16.615,7.439,16.615,16.615v0C432.81,288.171,425.371,295.61,416.195,295.61    z"/>
		<path style="fill:#2F373B;" d="M416.195,346.434H234.404c-9.176,0-16.615-7.439-16.615-16.615v0    c0-9.176,7.439-16.615,16.615-16.615h181.792c9.176,0,16.615,7.439,16.615,16.615v0    C432.81,338.995,425.371,346.434,416.195,346.434z"/>
	</g>
	<path style="fill:#3B9CB7;" d="M332.161,80.594c-3.763-30.39-28.215-54.011-58.692-56.985c-61.88-6.038-123.76-6.038-185.641,0   c-30.477,2.974-54.929,26.596-58.692,56.985c-5.655,45.661-5.652,91.322,0.006,136.983c3.766,30.392,28.206,53.961,58.686,56.934   c0.246,0.024,0.493,0.048,0.739,0.072c11.956,1.157,19.969,12.813,16.698,24.37l-2.315,8.181   c-3.889,13.742,11.801,24.637,23.318,16.191l55.457-40.668c3.24-2.376,7.144-3.662,11.161-3.713   c26.861-0.343,53.721-1.811,80.581-4.432c30.569-2.983,54.986-26.881,58.74-57.366C337.813,171.629,337.798,126.111,332.161,80.594   z"/>
	<g>
		<path style="fill:#FFFFFF;" d="M200.082,152.121c-12.687,9.919-12.918,16.838-12.918,28.833c0,4.383-2.307,9.458-13.609,9.458    c-9.457,0-12.687-3.46-12.687-15.455c0-19.837,8.766-29.294,15.455-35.061c7.612-6.459,20.53-13.609,20.53-26.065    c0-10.61-9.228-15.685-20.76-15.685c-23.527,0-18.454,17.761-30.91,17.761c-6.227,0-13.839-4.152-13.839-13.148    c0-12.456,14.301-30.909,45.442-30.909c29.525,0,49.132,16.377,49.132,38.06S206.311,147.277,200.082,152.121z M191.549,224.088    c0,9.458-7.843,17.761-17.761,17.761c-9.919,0-17.531-8.304-17.531-17.761c0-9.688,7.843-17.761,17.531-17.761    C183.475,206.327,191.549,214.4,191.549,224.088z"/>
	</g>
</g>















</svg>
